<?xml version="1.0" encoding="utf-8"?>
<!-- Generator: Adobe Illustrator 25.1.0, SVG Export Plug-In . SVG Version: 6.00 Build 0)  -->
<svg version="1.1" xmlns="http://www.w3.org/2000/svg" xmlns:xlink="http://www.w3.org/1999/xlink" x="0px" y="0px" width="516px"
	 height="154.9px" viewBox="0 0 516 154.9" enable-background="new 0 0 516 154.9" xml:space="preserve">
<g id="L5Bond">
</g>
<g id="L5ObserveAndAsk">
</g>
<g id="L5Ask">
</g>
<g id="L5DoingSomethingRight">
</g>
<g id="L5LearningMindset">
</g>
<g id="L5IdentifyGoals">
</g>
<g id="L4AddressABreachOfTrust">
	<g>
		<polygon fill="#E0EEBA" stroke="#004F66" stroke-width="0.85" stroke-linejoin="round" stroke-miterlimit="10" points="
			446.7,84.6 446.7,46.4 500.2,46.4 500.2,84.6 493.7,84.6 493.7,94.7 483.1,84.6 		"/>
		<g>
			<g>
				
					<line fill="none" stroke="#004F66" stroke-width="0.85" stroke-linejoin="round" stroke-miterlimit="10" x1="490.9" y1="72.1" x2="454.4" y2="72.1"/>
			</g>
			<g>
				
					<line fill="none" stroke="#004F66" stroke-width="0.85" stroke-linejoin="round" stroke-miterlimit="10" x1="490.6" y1="65.5" x2="454.1" y2="65.5"/>
			</g>
			<g>
				
					<line fill="none" stroke="#004F66" stroke-width="0.85" stroke-linejoin="round" stroke-miterlimit="10" x1="490.6" y1="58.9" x2="454.4" y2="58.9"/>
			</g>
		</g>
	</g>
	
		<rect x="304.3" y="21" fill="#00B2D4" stroke="#004F66" stroke-width="0.85" stroke-linejoin="round" stroke-miterlimit="10" width="56.7" height="75.1"/>
	<g>
		<g>
			
				<path fill="#A6CE39" stroke="#004F66" stroke-width="1.0625" stroke-linecap="round" stroke-linejoin="round" stroke-miterlimit="10" d="
				M22.2,102.1L22.2,102.1c-1.5-1.5-1.5-4,0-5.6l28.7-28.7l5.6,5.6l-28.7,28.7C26.2,103.6,23.7,103.6,22.2,102.1z"/>
			
				<line fill="none" stroke="#004F66" stroke-width="1.0625" stroke-linecap="round" stroke-linejoin="round" stroke-miterlimit="10" x1="43.2" y1="75.5" x2="48.7" y2="81.1"/>
			
				<line fill="none" stroke="#004F66" stroke-width="1.0625" stroke-linecap="round" stroke-linejoin="round" stroke-miterlimit="10" x1="40.7" y1="78" x2="46.2" y2="83.6"/>
			
				<line fill="none" stroke="#004F66" stroke-width="1.0625" stroke-linecap="round" stroke-linejoin="round" stroke-miterlimit="10" x1="38.2" y1="80.6" x2="43.7" y2="86.1"/>
		</g>
		
			<circle fill="#00B2D4" stroke="#004F66" stroke-width="1.0625" stroke-linecap="round" stroke-linejoin="round" stroke-miterlimit="10" cx="69.6" cy="54.6" r="29.7"/>
		<g>
			<defs>
				<circle id="XMLID_2_" cx="69.6" cy="54.6" r="23.5"/>
			</defs>
			<use xlink:href="#XMLID_2_"  overflow="visible" fill="#FFFFFF"/>
			<clipPath id="XMLID_3_">
				<use xlink:href="#XMLID_2_"  overflow="visible"/>
			</clipPath>
			
				<use xlink:href="#XMLID_2_"  overflow="visible" fill="none" stroke="#004F66" stroke-width="1.0625" stroke-linecap="round" stroke-linejoin="round" stroke-miterlimit="10"/>
		</g>
	</g>
	<g>
		
			<line fill="none" stroke="#004F66" stroke-width="0.85" stroke-linecap="square" stroke-linejoin="round" stroke-miterlimit="10" stroke-dasharray="18,3,9,3" x1="110" y1="55.3" x2="151.5" y2="55.3"/>
		
			<line fill="none" stroke="#004F66" stroke-width="0.85" stroke-linecap="square" stroke-miterlimit="10" stroke-dasharray="9,3,18,3" x1="110" y1="59" x2="151.5" y2="59"/>
	</g>
	<g>
		
			<line fill="none" stroke="#004F66" stroke-width="0.85" stroke-linecap="square" stroke-linejoin="round" stroke-miterlimit="10" stroke-dasharray="18,3,9,3" x1="244.2" y1="55.3" x2="285.7" y2="55.3"/>
		
			<line fill="none" stroke="#004F66" stroke-width="0.85" stroke-linecap="square" stroke-miterlimit="10" stroke-dasharray="9,3,18,3" x1="244.2" y1="59" x2="285.7" y2="59"/>
	</g>
	<g>
		
			<line fill="none" stroke="#004F66" stroke-width="0.85" stroke-linecap="square" stroke-linejoin="round" stroke-miterlimit="10" stroke-dasharray="18,3,9,3" x1="370.8" y1="55.3" x2="412.3" y2="55.3"/>
		
			<line fill="none" stroke="#004F66" stroke-width="0.85" stroke-linecap="square" stroke-miterlimit="10" stroke-dasharray="9,3,18,3" x1="370.8" y1="59" x2="412.3" y2="59"/>
	</g>
	<g>
		<g>
			<path fill="#3E464F" d="M38.3,121.4h4.8v1.3h-3.4v1.3h3v1.3h-3v2.4h-1.4V121.4z"/>
			<path fill="#3E464F" d="M44.2,121.4h1.4v6.3h-1.4V121.4z"/>
			<path fill="#3E464F" d="M47.2,121.4h1.3l3,3.9v-3.9h1.4v6.3h-1.2l-3.1-4v4h-1.4V121.4z"/>
			<path fill="#3E464F" d="M54.3,121.4h2.5c2,0,3.3,1.4,3.3,3.1v0c0,1.8-1.4,3.2-3.3,3.2h-2.5V121.4z M55.7,122.7v3.8h1.1
				c1.1,0,1.9-0.8,1.9-1.9v0c0-1.1-0.8-1.9-1.9-1.9H55.7z"/>
			<path fill="#3E464F" d="M63.7,124.6L63.7,124.6c0-1.8,1.4-3.3,3.4-3.3s3.3,1.4,3.3,3.2v0c0,1.8-1.4,3.3-3.4,3.3
				C65.1,127.8,63.7,126.4,63.7,124.6z M69,124.6L69,124.6c0-1.1-0.8-2-1.9-2s-1.9,0.9-1.9,2v0c0,1.1,0.8,2,1.9,2S69,125.7,69,124.6
				z"/>
			<path fill="#3E464F" d="M71.6,125v-3.6h1.4v3.6c0,1,0.5,1.6,1.4,1.6c0.8,0,1.4-0.5,1.4-1.5v-3.6h1.4v3.6c0,1.9-1.1,2.8-2.8,2.8
				S71.6,126.9,71.6,125z"/>
			<path fill="#3E464F" d="M79.9,122.7H78v-1.3h5.2v1.3h-1.9v5h-1.4V122.7z"/>
			<path fill="#3E464F" d="M86.5,121.4H88l1.3,4.3l1.4-4.3h1.2l1.4,4.3l1.3-4.3H96l-2.2,6.3h-1.2l-1.4-4.1l-1.4,4.1h-1.2L86.5,121.4
				z"/>
			<path fill="#3E464F" d="M97.1,121.4h1.4v2.5h2.6v-2.5h1.4v6.3H101v-2.5h-2.6v2.5h-1.4V121.4z"/>
			<path fill="#3E464F" d="M106,121.4h1.3l2.7,6.3h-1.5l-0.6-1.4h-2.7l-0.6,1.4h-1.4L106,121.4z M107.5,125.1l-0.8-2l-0.8,2H107.5z"
				/>
			<path fill="#3E464F" d="M111.6,122.7h-1.9v-1.3h5.2v1.3H113v5h-1.4V122.7z"/>
			<path fill="#3E464F" d="M38.3,132.4h1.4v2.5h2.6v-2.5h1.4v6.3h-1.4v-2.5h-2.6v2.5h-1.4V132.4z"/>
			<path fill="#3E464F" d="M47.3,132.4h1.3l2.7,6.3h-1.5l-0.6-1.4h-2.7l-0.6,1.4h-1.4L47.3,132.4z M48.7,136.1l-0.8-2l-0.8,2H48.7z"
				/>
			<path fill="#3E464F" d="M52.2,132.4h2.6c1.5,0,2.4,0.9,2.4,2.2v0c0,1.5-1.1,2.2-2.5,2.2h-1.1v1.9h-1.4V132.4z M54.7,135.6
				c0.7,0,1.1-0.4,1.1-1v0c0-0.6-0.4-1-1.1-1h-1.1v1.9H54.7z"/>
			<path fill="#3E464F" d="M58.2,132.4h2.6c1.5,0,2.4,0.9,2.4,2.2v0c0,1.5-1.1,2.2-2.5,2.2h-1.1v1.9h-1.4V132.4z M60.7,135.6
				c0.7,0,1.1-0.4,1.1-1v0c0-0.6-0.4-1-1.1-1h-1.1v1.9H60.7z"/>
			<path fill="#3E464F" d="M64.2,132.4H69v1.2h-3.4v1.3h3v1.2h-3v1.3H69v1.2h-4.8V132.4z"/>
			<path fill="#3E464F" d="M70.2,132.4h1.3l3,3.9v-3.9h1.4v6.3h-1.2l-3.1-4v4h-1.4V132.4z"/>
			<path fill="#3E464F" d="M77.3,132.4h4.8v1.2h-3.4v1.3h3v1.2h-3v1.3h3.4v1.2h-4.8V132.4z"/>
			<path fill="#3E464F" d="M83.4,132.4h2.5c2,0,3.3,1.4,3.3,3.1v0c0,1.8-1.4,3.2-3.3,3.2h-2.5V132.4z M84.8,133.7v3.8h1.1
				c1.1,0,1.9-0.8,1.9-1.9v0c0-1.1-0.8-1.9-1.9-1.9H84.8z"/>
		</g>
	</g>
	<g>
		<g>
			<rect x="20.3" y="119" fill="none" width="8" height="9.5"/>
			<path fill="#004F66" d="M23.4,121.7l-1.1,0.3l-0.3-1.1l1.8-0.5h1v6.4h-1.4V121.7z"/>
		</g>
		<circle fill="none" stroke="#004F66" stroke-miterlimit="10" cx="23.7" cy="123.3" r="7.8"/>
	</g>
	<g>
		<g>
			<path fill="#3E464F" d="M160.8,122.7h-1.9v-1.3h5.2v1.3h-1.9v5h-1.4V122.7z"/>
			<path fill="#3E464F" d="M166.5,121.4h1.3l2.7,6.3h-1.5l-0.6-1.4h-2.7l-0.6,1.4h-1.4L166.5,121.4z M168,125.1l-0.8-2l-0.8,2H168z"
				/>
			<path fill="#3E464F" d="M171.5,121.4h1.4v2.8l2.6-2.8h1.7l-2.6,2.7l2.7,3.6h-1.7l-2-2.7l-0.7,0.8v1.9h-1.4V121.4z"/>
			<path fill="#3E464F" d="M178,121.4h4.8v1.2h-3.4v1.3h3v1.2h-3v1.3h3.4v1.2H178V121.4z"/>
			<path fill="#3E464F" d="M186.8,121.4h2.9c0.8,0,1.4,0.2,1.8,0.6c0.4,0.4,0.5,0.8,0.5,1.4v0c0,1-0.5,1.7-1.4,2l1.5,2.3h-1.6
				l-1.3-2h-1.1v2h-1.4V121.4z M189.5,124.5c0.7,0,1.1-0.4,1.1-0.9v0c0-0.6-0.4-0.9-1.1-0.9h-1.4v1.8H189.5z"/>
			<path fill="#3E464F" d="M193.3,121.4h4.8v1.2h-3.4v1.3h3v1.2h-3v1.3h3.4v1.2h-4.8V121.4z"/>
			<path fill="#3E464F" d="M198.8,126.8l0.8-1c0.6,0.5,1.2,0.8,1.9,0.8c0.6,0,0.9-0.2,0.9-0.6v0c0-0.4-0.2-0.5-1.3-0.8
				c-1.3-0.3-2.1-0.7-2.1-1.9v0c0-1.1,0.9-1.9,2.2-1.9c0.9,0,1.7,0.3,2.3,0.8l-0.7,1c-0.6-0.4-1.1-0.6-1.6-0.6s-0.8,0.2-0.8,0.5v0
				c0,0.4,0.3,0.5,1.4,0.8c1.3,0.3,2,0.8,2,1.9v0c0,1.3-1,2-2.3,2C200.6,127.8,199.6,127.5,198.8,126.8z"/>
			<path fill="#3E464F" d="M205,121.4h2.6c1.5,0,2.4,0.9,2.4,2.2v0c0,1.5-1.1,2.2-2.5,2.2h-1.1v1.9H205V121.4z M207.5,124.6
				c0.7,0,1.1-0.4,1.1-1v0c0-0.6-0.4-1-1.1-1h-1.1v1.9H207.5z"/>
			<path fill="#3E464F" d="M210.7,124.6L210.7,124.6c0-1.8,1.4-3.3,3.4-3.3s3.3,1.4,3.3,3.2v0c0,1.8-1.4,3.3-3.4,3.3
				S210.7,126.4,210.7,124.6z M216,124.6L216,124.6c0-1.1-0.8-2-1.9-2s-1.9,0.9-1.9,2v0c0,1.1,0.8,2,1.9,2S216,125.7,216,124.6z"/>
			<path fill="#3E464F" d="M218.7,121.4h1.3l3,3.9v-3.9h1.4v6.3h-1.2l-3.1-4v4h-1.4V121.4z"/>
			<path fill="#3E464F" d="M225.3,126.8l0.8-1c0.6,0.5,1.2,0.8,1.9,0.8c0.6,0,0.9-0.2,0.9-0.6v0c0-0.4-0.2-0.5-1.3-0.8
				c-1.3-0.3-2.1-0.7-2.1-1.9v0c0-1.1,0.9-1.9,2.2-1.9c0.9,0,1.7,0.3,2.3,0.8l-0.7,1c-0.6-0.4-1.1-0.6-1.6-0.6s-0.8,0.2-0.8,0.5v0
				c0,0.4,0.3,0.5,1.4,0.8c1.3,0.3,2,0.8,2,1.9v0c0,1.3-1,2-2.3,2C227.1,127.8,226.1,127.5,225.3,126.8z"/>
			<path fill="#3E464F" d="M231.6,121.4h1.4v6.3h-1.4V121.4z"/>
			<path fill="#3E464F" d="M234.5,121.4h2.9c0.7,0,1.3,0.2,1.6,0.6c0.3,0.3,0.4,0.6,0.4,1.1v0c0,0.7-0.4,1.1-0.8,1.4
				c0.7,0.3,1.2,0.7,1.2,1.5v0c0,1.2-0.9,1.7-2.4,1.7h-3V121.4z M238.2,123.3c0-0.4-0.3-0.6-0.9-0.6h-1.4v1.3h1.3
				C237.8,124,238.2,123.8,238.2,123.3L238.2,123.3z M237.5,125.1h-1.6v1.4h1.6c0.6,0,1-0.2,1-0.7v0
				C238.5,125.4,238.2,125.1,237.5,125.1z"/>
			<path fill="#3E464F" d="M241.1,121.4h1.4v6.3h-1.4V121.4z"/>
			<path fill="#3E464F" d="M244,121.4h1.4v5h3.1v1.3H244V121.4z"/>
			<path fill="#3E464F" d="M249.7,121.4h1.4v6.3h-1.4V121.4z"/>
			<path fill="#3E464F" d="M254.1,122.7h-1.9v-1.3h5.2v1.3h-1.9v5h-1.4V122.7z"/>
			<path fill="#3E464F" d="M260.2,125.2l-2.4-3.8h1.6l1.5,2.5l1.5-2.5h1.6l-2.4,3.8v2.5h-1.4V125.2z"/>
		</g>
	</g>
	<g>
		<g>
			<g>
				<path fill="#004F66" d="M141.8,126.1l2.1-1.7c0.8-0.7,1.1-1,1.1-1.5c0-0.5-0.4-0.8-0.9-0.8c-0.5,0-0.8,0.3-1.3,0.9l-1-0.8
					c0.6-0.9,1.2-1.3,2.4-1.3c1.3,0,2.2,0.8,2.2,2v0c0,1.1-0.5,1.6-1.7,2.5l-1,0.8h2.8v1.2h-4.7V126.1z"/>
			</g>
		</g>
		<circle fill="none" stroke="#004F66" stroke-miterlimit="10" cx="144.7" cy="124.3" r="7.8"/>
	</g>
	<g>
		<g>
			<path fill="#3E464F" d="M307.8,121.4h2.9c0.8,0,1.4,0.2,1.8,0.6c0.4,0.4,0.5,0.8,0.5,1.4v0c0,1-0.5,1.7-1.4,2l1.5,2.3h-1.6
				l-1.3-2h-1.1v2h-1.4V121.4z M310.6,124.5c0.7,0,1.1-0.4,1.1-0.9v0c0-0.6-0.4-0.9-1.1-0.9h-1.4v1.8H310.6z"/>
			<path fill="#3E464F" d="M314.3,121.4h4.8v1.2h-3.4v1.3h3v1.2h-3v1.3h3.4v1.2h-4.8V121.4z"/>
			<path fill="#3E464F" d="M319.9,126.8l0.8-1c0.6,0.5,1.2,0.8,1.9,0.8c0.6,0,0.9-0.2,0.9-0.6v0c0-0.4-0.2-0.5-1.3-0.8
				c-1.3-0.3-2.1-0.7-2.1-1.9v0c0-1.1,0.9-1.9,2.2-1.9c0.9,0,1.7,0.3,2.3,0.8l-0.7,1c-0.6-0.4-1.1-0.6-1.6-0.6s-0.8,0.2-0.8,0.5v0
				c0,0.4,0.3,0.5,1.4,0.8c1.3,0.3,2,0.8,2,1.9v0c0,1.3-1,2-2.3,2C321.6,127.8,320.6,127.5,319.9,126.8z"/>
			<path fill="#3E464F" d="M325.8,124.6L325.8,124.6c0-1.8,1.4-3.3,3.4-3.3s3.3,1.4,3.3,3.2v0c0,1.8-1.4,3.3-3.4,3.3
				C327.2,127.8,325.8,126.4,325.8,124.6z M331,124.6L331,124.6c0-1.1-0.8-2-1.9-2s-1.9,0.9-1.9,2v0c0,1.1,0.8,2,1.9,2
				S331,125.7,331,124.6z"/>
			<path fill="#3E464F" d="M333.7,121.4h1.4v5h3.1v1.3h-4.5V121.4z"/>
			<path fill="#3E464F" d="M337.7,121.4h1.5l1.6,4.4l1.6-4.4h1.5l-2.5,6.3h-1.2L337.7,121.4z"/>
			<path fill="#3E464F" d="M345,121.4h4.8v1.2h-3.4v1.3h3v1.2h-3v1.3h3.4v1.2H345V121.4z"/>
			<path fill="#3E464F" d="M355.1,122.7h-1.9v-1.3h5.2v1.3h-1.9v5h-1.4V122.7z"/>
			<path fill="#3E464F" d="M359,124.6L359,124.6c0-1.8,1.4-3.3,3.4-3.3s3.3,1.4,3.3,3.2v0c0,1.8-1.4,3.3-3.4,3.3
				C360.3,127.8,359,126.4,359,124.6z M364.2,124.6L364.2,124.6c0-1.1-0.8-2-1.9-2s-1.9,0.9-1.9,2v0c0,1.1,0.8,2,1.9,2
				S364.2,125.7,364.2,124.6z"/>
			<path fill="#3E464F" d="M307.8,132.4h1.5l1.7,2.7l1.7-2.7h1.5v6.3h-1.4v-4.1l-1.8,2.7h0l-1.8-2.7v4.1h-1.4V132.4z"/>
			<path fill="#3E464F" d="M315.3,135.6L315.3,135.6c0-1.8,1.4-3.3,3.4-3.3s3.3,1.4,3.3,3.2v0c0,1.8-1.4,3.3-3.4,3.3
				C316.7,138.8,315.3,137.4,315.3,135.6z M320.6,135.6L320.6,135.6c0-1.1-0.8-2-1.9-2s-1.9,0.9-1.9,2v0c0,1.1,0.8,2,1.9,2
				S320.6,136.7,320.6,135.6z"/>
			<path fill="#3E464F" d="M322.3,132.4h1.5l1.6,4.4l1.6-4.4h1.5l-2.5,6.3h-1.2L322.3,132.4z"/>
			<path fill="#3E464F" d="M329.6,132.4h4.8v1.2h-3.4v1.3h3v1.2h-3v1.3h3.4v1.2h-4.8V132.4z"/>
			<path fill="#3E464F" d="M338.3,132.4h4.8v1.3h-3.4v1.3h3v1.3h-3v2.4h-1.4V132.4z"/>
			<path fill="#3E464F" d="M343.9,135.6L343.9,135.6c0-1.8,1.4-3.3,3.4-3.3s3.3,1.4,3.3,3.2v0c0,1.8-1.4,3.3-3.4,3.3
				S343.9,137.4,343.9,135.6z M349.1,135.6L349.1,135.6c0-1.1-0.8-2-1.9-2s-1.9,0.9-1.9,2v0c0,1.1,0.8,2,1.9,2
				S349.1,136.7,349.1,135.6z"/>
			<path fill="#3E464F" d="M351.8,132.4h2.9c0.8,0,1.4,0.2,1.8,0.6c0.4,0.4,0.5,0.8,0.5,1.4v0c0,1-0.5,1.7-1.4,2l1.5,2.3h-1.6
				l-1.3-2h-1.1v2h-1.4V132.4z M354.6,135.5c0.7,0,1.1-0.4,1.1-0.9v0c0-0.6-0.4-0.9-1.1-0.9h-1.4v1.8H354.6z"/>
			<path fill="#3E464F" d="M357.7,132.4h1.5l1.3,4.3l1.4-4.3h1.2l1.4,4.3l1.3-4.3h1.4l-2.2,6.3h-1.2l-1.4-4.1l-1.4,4.1h-1.2
				L357.7,132.4z"/>
			<path fill="#3E464F" d="M369.6,132.4h1.3l2.7,6.3h-1.5l-0.6-1.4h-2.7l-0.6,1.4h-1.4L369.6,132.4z M371.1,136.1l-0.8-2l-0.8,2
				H371.1z"/>
			<path fill="#3E464F" d="M374.6,132.4h2.9c0.8,0,1.4,0.2,1.8,0.6c0.4,0.4,0.5,0.8,0.5,1.4v0c0,1-0.5,1.7-1.4,2l1.5,2.3h-1.6
				l-1.3-2h-1.1v2h-1.4V132.4z M377.4,135.5c0.7,0,1.1-0.4,1.1-0.9v0c0-0.6-0.4-0.9-1.1-0.9h-1.4v1.8H377.4z"/>
			<path fill="#3E464F" d="M381.1,132.4h2.5c2,0,3.3,1.4,3.3,3.1v0c0,1.8-1.4,3.2-3.3,3.2h-2.5V132.4z M382.4,133.7v3.8h1.1
				c1.1,0,1.9-0.8,1.9-1.9v0c0-1.1-0.8-1.9-1.9-1.9H382.4z"/>
		</g>
	</g>
	<g>
		<g>
			<rect x="288.4" y="119.5" fill="none" width="8" height="9.5"/>
			<path fill="#004F66" d="M290.6,126.3l1-0.9c0.4,0.5,0.9,0.8,1.5,0.8c0.5,0,0.9-0.3,0.9-0.8v0c0-0.5-0.5-0.8-1.2-0.8h-0.6
				l-0.2-0.9l1.5-1.5h-2.5v-1.2h4.3v1.1l-1.6,1.5c0.9,0.1,1.7,0.6,1.7,1.8v0c0,1.2-0.9,2.1-2.3,2.1
				C291.9,127.4,291.1,126.9,290.6,126.3z"/>
		</g>
		<circle fill="none" stroke="#004F66" stroke-miterlimit="10" cx="293.2" cy="124.3" r="7.8"/>
	</g>
	<g>
		<g>
			<path fill="#3E464F" d="M443.3,121.4h4.8v1.3h-3.4v1.3h3v1.3h-3v2.4h-1.4V121.4z"/>
			<path fill="#3E464F" d="M448.9,124.6L448.9,124.6c0-1.8,1.4-3.3,3.4-3.3s3.3,1.4,3.3,3.2v0c0,1.8-1.4,3.3-3.4,3.3
				S448.9,126.4,448.9,124.6z M454.1,124.6L454.1,124.6c0-1.1-0.8-2-1.9-2s-1.9,0.9-1.9,2v0c0,1.1,0.8,2,1.9,2
				S454.1,125.7,454.1,124.6z"/>
			<path fill="#3E464F" d="M456.8,121.4h1.4v5h3.1v1.3h-4.5V121.4z"/>
			<path fill="#3E464F" d="M462.4,121.4h1.4v5h3.1v1.3h-4.5V121.4z"/>
			<path fill="#3E464F" d="M467.3,124.6L467.3,124.6c0-1.8,1.4-3.3,3.4-3.3s3.3,1.4,3.3,3.2v0c0,1.8-1.4,3.3-3.4,3.3
				C468.7,127.8,467.3,126.4,467.3,124.6z M472.5,124.6L472.5,124.6c0-1.1-0.8-2-1.9-2s-1.9,0.9-1.9,2v0c0,1.1,0.8,2,1.9,2
				S472.5,125.7,472.5,124.6z"/>
			<path fill="#3E464F" d="M474.4,121.4h1.5l1.3,4.3l1.4-4.3h1.2l1.4,4.3l1.3-4.3h1.4l-2.2,6.3h-1.2l-1.4-4.1l-1.4,4.1h-1.2
				L474.4,121.4z"/>
			<path fill="#3E464F" d="M487.5,125v-3.6h1.4v3.6c0,1,0.5,1.6,1.4,1.6c0.8,0,1.4-0.5,1.4-1.5v-3.6h1.4v3.6c0,1.9-1.1,2.8-2.8,2.8
				S487.5,126.9,487.5,125z"/>
			<path fill="#3E464F" d="M494.4,121.4h2.6c1.5,0,2.4,0.9,2.4,2.2v0c0,1.5-1.1,2.2-2.5,2.2h-1.1v1.9h-1.4V121.4z M496.9,124.6
				c0.7,0,1.1-0.4,1.1-1v0c0-0.6-0.4-1-1.1-1h-1.1v1.9H496.9z"/>
		</g>
	</g>
	<g>
		<g>
			<g>
				<path fill="#004F66" d="M428.8,125.9h-3.1l-0.2-1l3.5-4h1.2v3.9h0.9v1.1h-0.9v1.4h-1.3V125.9z M428.8,124.7v-2l-1.7,2H428.8z"/>
			</g>
		</g>
		<circle fill="none" stroke="#004F66" stroke-miterlimit="10" cx="428.6" cy="124.3" r="7.8"/>
	</g>
	<g>
		
			<path fill="#00B2D4" stroke="#004F66" stroke-width="1.0625" stroke-linecap="square" stroke-linejoin="round" stroke-miterlimit="10" d="
			M181.8,85.8c-0.3-3.4-1.9-6.6-4.3-9l-3.4-3.5c-9.2-9.2-14.3-21.7-14.3-34.6V25.8c0-3.9,2.9-7.3,6.7-7.5c2.2-0.1,4.2,0.7,5.6,2.1
			c1.3,1.3,2.1,3.1,2.1,5.1v7.3c0,13,5.1,25.4,14.3,34.6l0,0c3.2,3.2,7.6,5,12.1,5h17.8c17.7,0,15.1,20.7,15.1,28.7
			c0,0-51.4,0-51.3,0C182.1,101.1,182.3,90.5,181.8,85.8z"/>
		
			<path fill="#00B2D4" stroke="#004F66" stroke-width="1.0625" stroke-linecap="square" stroke-linejoin="round" stroke-miterlimit="10" d="
			M190,45.3v5.3c0,8.9,6.8,16.5,15.7,16.9c9.5,0.4,17.3-7.1,17.3-16.4v-5.3c0-8.9-6.8-16.5-15.7-16.9C197.8,28.4,190,35.9,190,45.3z
			"/>
	</g>
	<g>
		<g>
			
				<polygon fill="#FFFFFF" stroke="#004F66" stroke-width="0.85" stroke-linecap="round" stroke-linejoin="round" stroke-miterlimit="10" points="
				356.1,26 356.1,84.3 339.3,84.3 339.3,101.1 299.4,101.1 299.4,26 			"/>
			
				<polygon fill="#FFFFFF" stroke="#004F66" stroke-width="0.85" stroke-linecap="round" stroke-linejoin="round" stroke-miterlimit="10" points="
				356.1,84.3 339.3,101.1 339.3,84.3 			"/>
		</g>
		<g>
			
				<rect x="309.3" y="50.2" fill="#A6CE39" stroke="#004F66" stroke-width="0.85" stroke-linecap="round" stroke-linejoin="round" stroke-miterlimit="10" width="7.4" height="7.4"/>
			<g>
				<line fill="none" stroke="#004F66" stroke-width="0.85" stroke-miterlimit="10" x1="320.4" y1="52.3" x2="346.8" y2="52.3"/>
				<line fill="none" stroke="#004F66" stroke-width="0.85" stroke-miterlimit="10" x1="320.4" y1="55.5" x2="346.8" y2="55.5"/>
			</g>
		</g>
		<g>
			
				<rect x="309.3" y="37.8" fill="#A6CE39" stroke="#004F66" stroke-width="0.85" stroke-linecap="round" stroke-linejoin="round" stroke-miterlimit="10" width="7.4" height="7.4"/>
			<g>
				<line fill="none" stroke="#004F66" stroke-width="0.85" stroke-miterlimit="10" x1="320.4" y1="40" x2="346.8" y2="40"/>
				<line fill="none" stroke="#004F66" stroke-width="0.85" stroke-miterlimit="10" x1="320.4" y1="43.1" x2="346.8" y2="43.1"/>
			</g>
		</g>
		<g>
			
				<rect x="309.3" y="63.4" fill="#A6CE39" stroke="#004F66" stroke-width="0.85" stroke-linecap="round" stroke-linejoin="round" stroke-miterlimit="10" width="7.4" height="7.4"/>
			<g>
				<line fill="none" stroke="#004F66" stroke-width="0.85" stroke-miterlimit="10" x1="320.4" y1="65.5" x2="346.8" y2="65.5"/>
				<line fill="none" stroke="#004F66" stroke-width="0.85" stroke-miterlimit="10" x1="320.4" y1="68.6" x2="346.8" y2="68.6"/>
			</g>
		</g>
		<g>
			
				<rect x="309.3" y="77.2" fill="#A6CE39" stroke="#004F66" stroke-width="0.85" stroke-linecap="round" stroke-linejoin="round" stroke-miterlimit="10" width="7.4" height="7.4"/>
			<g>
				<line fill="none" stroke="#004F66" stroke-width="0.85" stroke-miterlimit="10" x1="320.4" y1="79.3" x2="346.8" y2="79.3"/>
				<line fill="none" stroke="#004F66" stroke-width="0.85" stroke-miterlimit="10" x1="320.4" y1="82.4" x2="335.5" y2="82.4"/>
			</g>
		</g>
	</g>
	<g>
		<polygon fill="#00B2D4" stroke="#004F66" stroke-width="0.85" stroke-linejoin="round" stroke-miterlimit="10" points="
			477.3,65.5 477.3,27.3 423.8,27.3 423.8,65.5 430.3,65.5 430.3,75.6 440.9,65.5 		"/>
		<g>
			<g>
				
					<line fill="none" stroke="#004F66" stroke-width="0.85" stroke-linejoin="round" stroke-miterlimit="10" x1="433.1" y1="53" x2="469.6" y2="53"/>
			</g>
			<g>
				
					<line fill="none" stroke="#004F66" stroke-width="0.85" stroke-linejoin="round" stroke-miterlimit="10" x1="433.4" y1="46.4" x2="469.9" y2="46.4"/>
			</g>
			<g>
				
					<line fill="none" stroke="#004F66" stroke-width="0.85" stroke-linejoin="round" stroke-miterlimit="10" x1="433.4" y1="39.8" x2="469.6" y2="39.8"/>
			</g>
		</g>
	</g>
	<line fill="none" stroke="#004F66" stroke-width="0.85" stroke-miterlimit="10" x1="315" y1="39.7" x2="310.9" y2="43.6"/>
	<line fill="none" stroke="#004F66" stroke-width="0.85" stroke-miterlimit="10" x1="311" y1="39.6" x2="314.9" y2="43.7"/>
	<line fill="none" stroke="#004F66" stroke-width="0.85" stroke-miterlimit="10" x1="315" y1="51.9" x2="310.9" y2="55.9"/>
	<line fill="none" stroke="#004F66" stroke-width="0.85" stroke-miterlimit="10" x1="311" y1="51.9" x2="314.9" y2="55.9"/>
</g>
<g id="L4TrustTriangle">
</g>
</svg>
