<?xml version="1.0" encoding="utf-8"?>
<!-- Generator: Adobe Illustrator 25.1.0, SVG Export Plug-In . SVG Version: 6.00 Build 0)  -->
<svg version="1.1" xmlns="http://www.w3.org/2000/svg" xmlns:xlink="http://www.w3.org/1999/xlink" x="0px" y="0px" width="516px"
	 height="441px" viewBox="0 0 516 441" enable-background="new 0 0 516 441" xml:space="preserve">
<g id="L5Bond">
</g>
<g id="L5ObserveAndAsk">
</g>
<g id="L5Ask">
</g>
<g id="L5DoingSomethingRight">
</g>
<g id="L5LearningMindset">
</g>
<g id="L5IdentifyGoals">
</g>
<g id="L4AddressABreachOfTrust">
</g>
<g id="L4TrustTriangle">
	
		<path fill="#A6CE39" stroke="#004F66" stroke-width="1.0625" stroke-linecap="square" stroke-linejoin="round" stroke-miterlimit="10" d="
		M291.3,224.8c0-5.1-2-9.9-5.6-13.5c-7.4-7.4-19.6-7.4-27,0l-9.9,9.9c-3.6,3.6-5.6,8.4-5.6,13.5c0,3.6,1,7.1,2.9,10.1
		c0.8,1.2,1.7,2.4,2.7,3.4c1,1,2.1,1.9,3.3,2.6c0.9,0.6,1.9,1.1,2.9,1.5c2.3,1,4.8,1.4,7.3,1.4c5.1,0,9.9-2,13.5-5.6l3.1-3.1
		c-0.5-1.4-1.3-2.6-2.4-3.7c-1-1.1-2.3-1.8-3.6-2.4l-3.2,3.2c-2,2-4.7,3.1-7.5,3.1c-1.4,0-2.7-0.3-3.9-0.7c-1.3-0.5-2.6-1.3-3.6-2.4
		c-1-1-1.8-2.2-2.3-3.4c0-0.1-0.1-0.2-0.1-0.3c-0.5-1.2-0.7-2.5-0.7-3.8c0-2.8,1.1-5.5,3.1-7.5l9.9-9.9c2.1-2.1,4.8-3.1,7.5-3.1
		c2.7,0,5.4,1,7.5,3.1c2,2,3.1,4.7,3.1,7.5s-1.1,5.5-3.1,7.5l-0.4,0.4c1.2,0.7,2.3,1.6,3.3,2.6c1,1,1.9,2.2,2.7,3.4l0.4-0.4
		C289.3,234.7,291.3,229.9,291.3,224.8z"/>
	
		<path fill="#00B2D4" stroke="#004F66" stroke-width="1.0625" stroke-linecap="square" stroke-linejoin="round" stroke-miterlimit="10" d="
		M288.2,248.8c0-3.6-1-7.1-2.9-10.1c-0.8-1.2-1.7-2.4-2.7-3.4c-1-1-2.1-1.9-3.3-2.6c-7.4-4.7-17.3-3.8-23.7,2.6l-3.1,3.1
		c0,0.1,0.1,0.2,0.1,0.3c0.5,1.3,1.3,2.4,2.3,3.4c1,1,2.3,1.8,3.6,2.4l3.2-3.2c2.1-2.1,4.8-3.1,7.5-3.1c1.3,0,2.6,0.2,3.9,0.7
		c1.3,0.5,2.5,1.3,3.6,2.4c1.1,1.1,1.9,2.3,2.4,3.7c0.5,1.2,0.7,2.5,0.7,3.8c0,2.8-1.1,5.5-3.1,7.5l-9.9,9.9c-2,2-4.7,3.1-7.5,3.1
		c-2.8,0-5.5-1.1-7.5-3.1c-1-1-1.8-2.2-2.3-3.4c-0.5-1.3-0.8-2.6-0.8-4.1c0-2.8,1.1-5.5,3.1-7.5l0.4-0.4c-1.2-0.7-2.3-1.6-3.3-2.6
		c-1-1-1.9-2.2-2.7-3.4l-0.4,0.4c-3.6,3.6-5.6,8.4-5.6,13.5c0,5.1,2,9.9,5.6,13.5c1.8,1.8,3.9,3.2,6.2,4.1c2.3,1,4.8,1.4,7.3,1.4
		c5.1,0,9.9-2,13.5-5.6l9.9-9.9C286.2,258.7,288.2,253.9,288.2,248.8z"/>
	<g>
		<g>
			
				<polyline fill="none" stroke="#004F66" stroke-width="1.0625" stroke-linecap="square" stroke-linejoin="round" stroke-miterlimit="10" points="
				277,345.4 260.8,345.4 244.6,345.4 			"/>
			
				<line fill="none" stroke="#004F66" stroke-width="1.0625" stroke-linecap="square" stroke-linejoin="round" stroke-miterlimit="10" x1="301.6" y1="154.9" x2="331.6" y2="205.7"/>
			
				<line fill="none" stroke="#004F66" stroke-width="1.0625" stroke-linecap="square" stroke-linejoin="round" stroke-miterlimit="10" x1="209.1" y1="173.6" x2="260.8" y2="84.1"/>
			
				<line fill="none" stroke="#004F66" stroke-width="1.0625" stroke-linecap="square" stroke-linejoin="round" stroke-miterlimit="10" x1="187" y1="211.9" x2="203.6" y2="183.1"/>
			
				<line fill="none" stroke="#004F66" stroke-width="1.0625" stroke-linecap="square" stroke-linejoin="round" stroke-miterlimit="10" x1="168.3" y1="244.9" x2="181.7" y2="221.2"/>
			
				<line fill="none" stroke="#004F66" stroke-width="1.0625" stroke-linecap="square" stroke-linejoin="round" stroke-miterlimit="10" x1="151.8" y1="274.2" x2="162" y2="256.1"/>
			
				<line fill="none" stroke="#004F66" stroke-width="1.0625" stroke-linecap="square" stroke-linejoin="round" stroke-miterlimit="10" x1="362.6" y1="260.6" x2="416.6" y2="354.1"/>
			
				<line fill="none" stroke="#004F66" stroke-width="1.0625" stroke-linecap="square" stroke-linejoin="round" stroke-miterlimit="10" x1="336" y1="214.5" x2="357.9" y2="252.4"/>
			
				<line fill="none" stroke="#004F66" stroke-width="1.0625" stroke-linecap="square" stroke-linejoin="round" stroke-miterlimit="10" x1="234.3" y1="345.4" x2="191.4" y2="345.4"/>
			
				<line fill="none" stroke="#004F66" stroke-width="1.0625" stroke-linecap="square" stroke-linejoin="round" stroke-miterlimit="10" x1="329.7" y1="345.4" x2="286.8" y2="345.4"/>
		</g>
		
			<line fill="none" stroke="#004F66" stroke-width="1.0625" stroke-linecap="square" stroke-linejoin="round" stroke-miterlimit="10" x1="316.6" y1="198.4" x2="340.4" y2="240.8"/>
		
			<polyline fill="none" stroke="#004F66" stroke-width="1.0625" stroke-linecap="square" stroke-linejoin="round" stroke-miterlimit="10" points="
			206.6,196.1 260.8,102.9 274.5,126.6 301.6,173.6 311.3,189.3 		"/>
		
			<line fill="none" stroke="#004F66" stroke-width="1.0625" stroke-linecap="square" stroke-linejoin="round" stroke-miterlimit="10" x1="185.7" y1="233.5" x2="201.1" y2="205.7"/>
		
			<line fill="none" stroke="#004F66" stroke-width="1.0625" stroke-linecap="square" stroke-linejoin="round" stroke-miterlimit="10" x1="160.7" y1="278.7" x2="180.6" y2="242.8"/>
		
			<line fill="none" stroke="#004F66" stroke-width="1.0625" stroke-linecap="square" stroke-linejoin="round" stroke-miterlimit="10" x1="210.1" y1="335.3" x2="129.4" y2="335.3"/>
		
			<line fill="none" stroke="#004F66" stroke-width="1.0625" stroke-linecap="square" stroke-linejoin="round" stroke-miterlimit="10" x1="259.9" y1="335.3" x2="217.1" y2="335.3"/>
		
			<line fill="none" stroke="#004F66" stroke-width="1.0625" stroke-linecap="square" stroke-linejoin="round" stroke-miterlimit="10" x1="305.7" y1="335.3" x2="266.7" y2="335.3"/>
		
			<polyline fill="none" stroke="#004F66" stroke-width="1.0625" stroke-linecap="square" stroke-linejoin="round" stroke-miterlimit="10" points="
			345.3,249.3 395,335.3 312.7,335.3 		"/>
	</g>
	
		<circle fill="#FFFFFF" stroke="#004F66" stroke-width="1.0625" stroke-linecap="square" stroke-linejoin="round" stroke-miterlimit="10" cx="260.8" cy="102.9" r="66.1"/>
	
		<circle fill="#FFFFFF" stroke="#004F66" stroke-width="1.0625" stroke-linecap="square" stroke-linejoin="round" stroke-miterlimit="10" cx="126.6" cy="335.3" r="66.1"/>
	
		<circle fill="#FFFFFF" stroke="#004F66" stroke-width="1.0625" stroke-linecap="square" stroke-linejoin="round" stroke-miterlimit="10" cx="395" cy="335.3" r="66.1"/>
	<g>
		
			<path fill="#00B2D4" stroke="#004F66" stroke-width="1.0625" stroke-linecap="square" stroke-linejoin="round" stroke-miterlimit="10" d="
			M223.6,134.7h61.7v-12.8c0-9.5-7.7-17.3-17.3-17.3h-27.2c-9.5,0-17.3,7.7-17.3,17.3V134.7z"/>
		
			<path fill="#00B2D4" stroke="#004F66" stroke-width="1.0625" stroke-linecap="square" stroke-linejoin="round" stroke-miterlimit="10" d="
			M237.3,74.9v6c0,9.5,7.7,17.2,17.2,17.2c9.5,0,17.2-7.7,17.2-17.2v-6c0-9.5-7.7-17.2-17.2-17.2C245,57.7,237.3,65.4,237.3,74.9z"
			/>
	</g>
	<g>
		
			<circle fill="#A6CE39" stroke="#004F66" stroke-width="1.0625" stroke-linecap="square" stroke-linejoin="round" stroke-miterlimit="10" cx="284.5" cy="132.2" r="15.7"/>
		
			<path fill="#FFFFFF" stroke="#004F66" stroke-width="1.0625" stroke-linecap="square" stroke-linejoin="round" stroke-miterlimit="10" d="
			M282.5,140.1L282.5,140.1c-0.7,0-1.3-0.3-1.8-0.7l-6.2-6.2l3.5-3.5l4.5,4.5l9-9l3.5,3.5l-10.7,10.7
			C283.8,139.9,283.1,140.1,282.5,140.1z"/>
	</g>
	<g>
		
			<path fill="#00B2D4" stroke="#004F66" stroke-width="1.0625" stroke-linecap="square" stroke-linejoin="round" stroke-miterlimit="10" d="
			M364.1,369.3h61.7v-12.8c0-9.5-7.7-17.3-17.3-17.3h-27.2c-9.5,0-17.3,7.7-17.3,17.3V369.3z"/>
		
			<path fill="#00B2D4" stroke="#004F66" stroke-width="1.0625" stroke-linecap="square" stroke-linejoin="round" stroke-miterlimit="10" d="
			M377.8,309.6v6c0,9.5,7.7,17.2,17.2,17.2s17.2-7.7,17.2-17.2v-6c0-9.5-7.7-17.2-17.2-17.2S377.8,300,377.8,309.6z"/>
	</g>
	<g>
		
			<circle fill="#A6CE39" stroke="#004F66" stroke-width="1.0625" stroke-linecap="square" stroke-linejoin="round" stroke-miterlimit="10" cx="422.5" cy="362.6" r="15.7"/>
	</g>
	<g>
		<path fill="#00B2D4" d="M118.8,354.8c0,0-4.8,12.4-20.2,13.4l0.2-4c0,0,6.8,0.2,8.8-4.7c2-4.9,1.2-6.6,1.2-6.6"/>
		<circle fill="#00B2D4" cx="137.7" cy="318.5" r="12.8"/>
		<circle fill="#00B2D4" cx="151.4" cy="334.2" r="16.9"/>
		<circle fill="#00B2D4" cx="126.6" cy="338.5" r="18.2"/>
		<circle fill="#00B2D4" cx="108.4" cy="330.1" r="18.2"/>
		<circle fill="#00B2D4" cx="121.3" cy="318.4" r="12"/>
		<circle fill="#00B2D4" cx="97.5" cy="336.4" r="12.7"/>
		<circle fill="#00B2D4" cx="98.2" cy="342.7" r="12.7"/>
		<circle fill="#00B2D4" cx="108.8" cy="346.9" r="13.1"/>
	</g>
	<g>
		
			<path fill="none" stroke="#004F66" stroke-width="1.0625" stroke-linecap="round" stroke-linejoin="round" stroke-miterlimit="10" d="
			M119.1,354.9c2.4,1.2,5,1.9,7.9,1.9c6.4,0,12-3.5,14.8-8.8c2.7,1.9,6,3,9.6,3c9.4,0,17-7.6,17-17c0-9.4-7.6-17-17-17
			c-0.3,0-0.6,0-0.9,0c-0.6-6.4-6-11.4-12.5-11.4c-3.3,0-6.4,1.3-8.6,3.4c-2.2-1.7-4.9-2.8-7.9-2.8c-4.4,0-8.3,2.3-10.5,5.7
			c-1.1-0.2-2.3-0.4-3.5-0.4c-8.4,0-15.3,6.1-16.7,14c-3.5,2.2-5.9,6.2-5.9,10.7c0,1.6,0.3,3.1,0.9,4.5c-0.1,0.5-0.1,1-0.1,1.6
			c0,7,5.7,12.6,12.6,12.6c0.3,0,0.5,0,0.8,0c1.1,2.6,5.2,4.8,8.6,4.2"/>
		<g>
			
				<path fill="none" stroke="#004F66" stroke-width="1.0625" stroke-linecap="square" stroke-linejoin="round" stroke-miterlimit="10" d="
				M150.5,317.2c0.2,1.7-0.1,3.8-0.5,5.1"/>
			
				<path fill="none" stroke="#004F66" stroke-width="1.0625" stroke-linecap="square" stroke-linejoin="round" stroke-miterlimit="10" d="
				M126.9,312.4c0.7-1.2,1.5-2.3,2.5-3.2"/>
			
				<path fill="none" stroke="#004F66" stroke-width="1.0625" stroke-linecap="square" stroke-linejoin="round" stroke-miterlimit="10" d="
				M107.8,311.9c3.9,0,7.2,1.4,10.1,3.6"/>
			
				<path fill="none" stroke="#004F66" stroke-width="1.0625" stroke-linecap="square" stroke-linejoin="round" stroke-miterlimit="10" d="
				M126.9,323c9.4,0,17,7.6,17,17c0,3-0.8,5.8-2.1,8.2"/>
			
				<path fill="none" stroke="#004F66" stroke-width="1.0625" stroke-linecap="square" stroke-linejoin="round" stroke-miterlimit="10" d="
				M85.6,342.7c0-7,5.7-12.6,12.6-12.6s12.6,5.7,12.6,12.6"/>
			
				<path fill="none" stroke="#004F66" stroke-width="1.0625" stroke-linecap="square" stroke-linejoin="round" stroke-miterlimit="10" d="
				M105.7,352.9c-2.1,1.5-4.7,2.5-7.5,2.5"/>
			
				<path fill="none" stroke="#004F66" stroke-width="1.0625" stroke-linecap="square" stroke-linejoin="round" stroke-miterlimit="10" d="
				M90.4,326.1c2-1.4,4.4-2.2,7.1-2.2"/>
			
				<path fill="none" stroke="#004F66" stroke-width="1.0625" stroke-linecap="square" stroke-linejoin="round" stroke-miterlimit="10" d="
				M100.8,348.8c7,0,10.4,1.1,18.1,6c0,0-6,13.3-20,13.3"/>
			
				<path fill="none" stroke="#004F66" stroke-width="1.0625" stroke-linecap="square" stroke-linejoin="round" stroke-miterlimit="10" d="
				M107.1,333.7c0,0,2.5,2.7,11.1,2.7"/>
			
				<path fill="none" stroke="#004F66" stroke-width="1.0625" stroke-linecap="square" stroke-linejoin="round" stroke-miterlimit="10" d="
				M125.3,334.4c2.2,2.2,2.2,5.9,0,8.1s-5.9,2.2-8.1,0"/>
			
				<path fill="none" stroke="#004F66" stroke-width="1.0625" stroke-linecap="square" stroke-linejoin="round" stroke-miterlimit="10" d="
				M125.9,341.9c4.8,0,8.7,3.9,8.7,8.7"/>
			
				<path fill="none" stroke="#004F66" stroke-width="1.0625" stroke-linecap="square" stroke-linejoin="round" stroke-miterlimit="10" d="
				M105.1,341.1c0,4.8-3.9,8.7-8.7,8.7"/>
			
				<path fill="none" stroke="#004F66" stroke-width="1.0625" stroke-linecap="square" stroke-linejoin="round" stroke-miterlimit="10" d="
				M117,326.1c0.6-4.7,4.9-8.1,9.6-7.6"/>
			
				<path fill="none" stroke="#004F66" stroke-width="1.0625" stroke-linecap="square" stroke-linejoin="round" stroke-miterlimit="10" d="
				M145.3,324.3c7,2.5,10.7,10.3,8.2,17.3"/>
			
				<path fill="none" stroke="#004F66" stroke-width="1.0625" stroke-linecap="square" stroke-linejoin="round" stroke-miterlimit="10" d="
				M161.1,327.9c-2.3,2.9-6.4,3.4-9.3,1.1"/>
			
				<path fill="none" stroke="#004F66" stroke-width="1.0625" stroke-linecap="square" stroke-linejoin="round" stroke-miterlimit="10" d="
				M145.9,318.5c1.2,3.5-0.6,7.3-4.1,8.5"/>
			
				<path fill="none" stroke="#004F66" stroke-width="1.0625" stroke-linecap="square" stroke-linejoin="round" stroke-miterlimit="10" d="
				M105.7,323.6c3.6,3.2,9,2.9,12.2-0.6"/>
			
				<path fill="none" stroke="#004F66" stroke-width="1.0625" stroke-linecap="square" stroke-linejoin="round" stroke-miterlimit="10" d="
				M133.9,314.4c-2.4,4.1-1.1,9.4,3,11.9"/>
		</g>
		
			<path fill="none" stroke="#004F66" stroke-width="1.0625" stroke-linecap="square" stroke-linejoin="round" stroke-miterlimit="10" d="
			M98.8,364.2c6.2,0,10-4.2,10-9.4"/>
	</g>
	<g>
		<g>
			<path fill="#3E464F" d="M228.9,19.6h1.3l2.7,6.3h-1.5l-0.6-1.4h-2.7l-0.6,1.4h-1.4L228.9,19.6z M230.3,23.3l-0.8-2l-0.8,2H230.3z
				"/>
			<path fill="#3E464F" d="M233.5,23.3v-3.6h1.4v3.6c0,1,0.5,1.6,1.4,1.6c0.8,0,1.4-0.5,1.4-1.5v-3.6h1.4v3.6c0,1.9-1.1,2.8-2.8,2.8
				S233.5,25.1,233.5,23.3z"/>
			<path fill="#3E464F" d="M241.9,21H240v-1.3h5.2V21h-1.9v5h-1.4V21z"/>
			<path fill="#3E464F" d="M246.2,19.7h1.4v2.5h2.6v-2.5h1.4V26h-1.4v-2.5h-2.6V26h-1.4V19.7z"/>
			<path fill="#3E464F" d="M253.1,19.7h4.8v1.2h-3.4v1.3h3v1.2h-3v1.3h3.4V26h-4.8V19.7z"/>
			<path fill="#3E464F" d="M259.1,19.7h1.3l3,3.9v-3.9h1.4V26h-1.2l-3.1-4v4h-1.4V19.7z"/>
			<path fill="#3E464F" d="M267.6,21h-1.9v-1.3h5.2V21H269v5h-1.4V21z"/>
			<path fill="#3E464F" d="M272.1,19.7h1.4V26h-1.4V19.7z"/>
			<path fill="#3E464F" d="M274.7,22.8L274.7,22.8c0-1.8,1.3-3.3,3.3-3.3c1.2,0,1.9,0.4,2.5,1l-0.9,1c-0.5-0.4-1-0.7-1.6-0.7
				c-1.1,0-1.8,0.9-1.8,2v0c0,1.1,0.7,2,1.8,2c0.7,0,1.2-0.3,1.7-0.7l0.9,0.9c-0.6,0.7-1.4,1.1-2.6,1.1
				C276.1,26.1,274.7,24.7,274.7,22.8z"/>
			<path fill="#3E464F" d="M281.7,19.7h1.4V26h-1.4V19.7z"/>
			<path fill="#3E464F" d="M286.1,21h-1.9v-1.3h5.2V21h-1.9v5h-1.4V21z"/>
			<path fill="#3E464F" d="M292.3,23.5l-2.4-3.8h1.6l1.5,2.5l1.5-2.5h1.6l-2.4,3.8V26h-1.4V23.5z"/>
		</g>
	</g>
	<g>
		<g>
			<path fill="#3E464F" d="M374.1,414.6h4.8v1.2h-3.4v1.3h3v1.2h-3v1.3h3.4v1.2h-4.8V414.6z"/>
			<path fill="#3E464F" d="M380.1,414.6h1.5l1.7,2.7l1.7-2.7h1.5v6.3H385v-4.1l-1.8,2.7h0l-1.8-2.7v4.1h-1.4V414.6z"/>
			<path fill="#3E464F" d="M387.9,414.6h2.6c1.5,0,2.4,0.9,2.4,2.2v0c0,1.5-1.1,2.2-2.5,2.2h-1.1v1.9h-1.4V414.6z M390.4,417.8
				c0.7,0,1.1-0.4,1.1-1v0c0-0.6-0.4-1-1.1-1h-1.1v1.9H390.4z"/>
			<path fill="#3E464F" d="M395.5,414.5h1.3l2.7,6.3H398l-0.6-1.4h-2.7l-0.6,1.4h-1.4L395.5,414.5z M396.9,418.2l-0.8-2l-0.8,2
				H396.9z"/>
			<path fill="#3E464F" d="M401.1,415.9h-1.9v-1.3h5.2v1.3h-1.9v5h-1.4V415.9z"/>
			<path fill="#3E464F" d="M405.4,414.6h1.4v2.5h2.6v-2.5h1.4v6.3h-1.4v-2.5h-2.6v2.5h-1.4V414.6z"/>
			<path fill="#3E464F" d="M414,418.4l-2.4-3.8h1.6l1.5,2.5l1.5-2.5h1.6l-2.4,3.8v2.5H414V418.4z"/>
		</g>
	</g>
	<g>
		<g>
			<path fill="#3E464F" d="M112.6,414.6h1.4v5h3.1v1.3h-4.5V414.6z"/>
			<path fill="#3E464F" d="M117.5,417.8L117.5,417.8c0-1.8,1.4-3.3,3.4-3.3s3.3,1.4,3.3,3.2v0c0,1.8-1.4,3.3-3.4,3.3
				S117.5,419.5,117.5,417.8z M122.8,417.8L122.8,417.8c0-1.1-0.8-2-1.9-2s-1.9,0.9-1.9,2v0c0,1.1,0.8,2,1.9,2
				S122.8,418.8,122.8,417.8z"/>
			<path fill="#3E464F" d="M125.1,417.8L125.1,417.8c0-1.8,1.4-3.3,3.3-3.3c1.1,0,1.8,0.3,2.5,0.9l-0.9,1.1
				c-0.5-0.4-0.9-0.6-1.6-0.6c-1,0-1.8,0.9-1.8,2v0c0,1.2,0.8,2,1.9,2c0.5,0,1-0.1,1.3-0.4v-0.9h-1.4v-1.2h2.7v2.7
				c-0.6,0.5-1.5,1-2.7,1C126.5,421,125.1,419.6,125.1,417.8z"/>
			<path fill="#3E464F" d="M132.5,414.6h1.4v6.3h-1.4V414.6z"/>
			<path fill="#3E464F" d="M135.2,417.8L135.2,417.8c0-1.8,1.3-3.3,3.3-3.3c1.2,0,1.9,0.4,2.5,1l-0.9,1c-0.5-0.4-1-0.7-1.6-0.7
				c-1.1,0-1.8,0.9-1.8,2v0c0,1.1,0.7,2,1.8,2c0.7,0,1.2-0.3,1.7-0.7l0.9,0.9c-0.6,0.7-1.4,1.1-2.6,1.1
				C136.6,421,135.2,419.6,135.2,417.8z"/>
		</g>
	</g>
	<g>
		<g>
			<path fill="#3E464F" d="M246.8,290.7h-1.9v-1.3h5.2v1.3h-1.9v5h-1.4V290.7z"/>
			<path fill="#3E464F" d="M251.2,289.4h2.9c0.8,0,1.4,0.2,1.8,0.6c0.4,0.4,0.5,0.8,0.5,1.4v0c0,1-0.5,1.7-1.4,2l1.5,2.3H255l-1.4-2
				h-1.1v2h-1.4V289.4z M254,292.4c0.7,0,1.1-0.4,1.1-0.9v0c0-0.6-0.4-0.9-1.1-0.9h-1.4v1.8H254z"/>
			<path fill="#3E464F" d="M257.6,293v-3.6h1.4v3.6c0,1,0.5,1.6,1.4,1.6c0.8,0,1.4-0.5,1.4-1.5v-3.6h1.4v3.6c0,1.9-1.1,2.8-2.8,2.8
				C258.6,295.8,257.6,294.8,257.6,293z"/>
			<path fill="#3E464F" d="M264,294.8l0.8-1c0.6,0.5,1.2,0.8,1.9,0.8c0.6,0,0.9-0.2,0.9-0.6v0c0-0.4-0.2-0.5-1.3-0.8
				c-1.3-0.3-2.1-0.7-2.1-1.9v0c0-1.1,0.9-1.9,2.2-1.9c0.9,0,1.7,0.3,2.3,0.8l-0.7,1c-0.6-0.4-1.1-0.6-1.6-0.6s-0.8,0.2-0.8,0.5v0
				c0,0.4,0.3,0.5,1.4,0.8c1.3,0.3,2,0.8,2,1.9v0c0,1.3-1,2-2.3,2C265.8,295.8,264.8,295.4,264,294.8z"/>
			<path fill="#3E464F" d="M271.6,290.7h-1.9v-1.3h5.2v1.3h-1.9v5h-1.4V290.7z"/>
		</g>
	</g>
	
		<path fill="#FFFFFF" stroke="#004F66" stroke-width="1.0625" stroke-linecap="square" stroke-linejoin="round" stroke-miterlimit="10" d="
		M429.7,364.4l-7.2,7.2l-7.2-7.2c-2.7-2.7-0.8-7.2,3-7.2c1.2,0,2.2,0.5,3,1.2c0.8,0.8,1.2,1.8,1.2,3c0-1.2,0.5-2.2,1.2-3
		c0.8-0.8,1.8-1.2,3-1.2C430.5,357.2,432.4,361.8,429.7,364.4z"/>
</g>
</svg>
